# xmcd
# 
# Track frame offsets:
#     150
#     19962
#     36862
#     60967
#     78337
#     93260
#     111912
#     127675
#     145702
#     164757
#     196860
# 
# Disc length: 4440
# 
# Revision: 0
# Processed by: cddbd v1.5.2PL0 Copyright (c) Steve Scherf et al.
# Submitted via: fre:ac v1.0.27
# 
DISCID=8611560b
DTITLE=14 Bis - A Nave Vai
DYEAR=1985
DGENRE=
TTITLE0=Outras Dimensões (A Nave Vai)
TTITLE1=Mel do Amor
TTITLE2=Só se For
TTITLE3=Sem Duvidar
TTITLE4=Figura Rara
TTITLE5=Nuvens
TTITLE6=Pedra Bonita
TTITLE7=Falso Blasé
TTITLE8=Toada Mineira
TTITLE9=Nova Idade Média
TTITLE10=Data track
EXTD=
EXTT0=
EXTT1=
EXTT2=
EXTT3=
EXTT4=
EXTT5=
EXTT6=
EXTT7=
EXTT8=
EXTT9=
EXTT10=
PLAYORDER=
